<svg xmlns="http://www.w3.org/2000/svg" fill="none" viewBox="0 0 48 48" height="48" width="48" id="Add-Circle--Streamline-Plump"><desc>Add Circle Streamline Icon: https://streamlinehq.com</desc><g id="add-circle--button-remove-cross-add-buttons-plus-circle-+-mathematics-math"><path id="Ellipse 18" stroke="#f7edb4" stroke-linecap="round" stroke-linejoin="round" d="M3 24a21 21 0 1 0 42 0 21 21 0 1 0 -42 0" stroke-width="3"></path><path id="Union" stroke="#f7edb4" stroke-linecap="round" stroke-linejoin="round" d="M21.839 35.858c-1.012 -0.148 -1.638 -1.017 -1.683 -2.038 -0.05 -1.154 -0.108 -3.009 -0.137 -5.839 -2.83 -0.029 -4.685 -0.086 -5.839 -0.137 -1.021 -0.045 -1.89 -0.671 -2.038 -1.683A15.01 15.01 0 0 1 12 24c0 -0.891 0.061 -1.605 0.142 -2.161 0.148 -1.012 1.017 -1.638 2.038 -1.683 1.154 -0.05 3.009 -0.108 5.839 -0.137 0.029 -2.83 0.086 -4.685 0.137 -5.839 0.045 -1.021 0.671 -1.89 1.683 -2.038A15.01 15.01 0 0 1 24 12c0.891 0 1.605 0.061 2.161 0.142 1.012 0.148 1.638 1.017 1.683 2.038 0.05 1.154 0.108 3.009 0.137 5.839 2.83 0.029 4.685 0.086 5.839 0.137 1.021 0.045 1.89 0.671 2.038 1.683 0.081 0.556 0.142 1.27 0.142 2.161s-0.061 1.605 -0.142 2.161c-0.148 1.012 -1.017 1.638 -2.038 1.683 -1.154 0.05 -3.009 0.108 -5.839 0.137 -0.029 2.83 -0.086 4.685 -0.137 5.839 -0.045 1.021 -0.671 1.89 -1.683 2.038A15.01 15.01 0 0 1 24 36a15.01 15.01 0 0 1 -2.161 -0.142Z" stroke-width="3"></path></g></svg>